<svg width="38" height="48" viewBox="0 0 38 48" fill="none" xmlns="http://www.w3.org/2000/svg">
<path d="M19.6057 4.00688L3.98693 19.7038C1.78501 21.9168 1.78468 25.5043 3.9862 27.7168C6.18772 29.9294 9.75741 29.929 11.9593 27.7161L27.5781 12.0192C29.78 9.80623 29.7804 6.21868 27.5788 4.00614C25.3773 1.79361 21.8076 1.79394 19.6057 4.00688Z" fill="black"/>
<path d="M26.0408 19.6648L10.422 35.3617C8.22007 37.5746 8.21974 41.1622 10.4213 43.3747C12.6228 45.5873 16.1925 45.5869 18.3944 43.374L34.0132 27.6771C36.2151 25.4641 36.2154 21.8766 34.0139 19.664C31.8124 17.4515 28.2427 17.4518 26.0408 19.6648Z" fill="black"/>
</svg>
